<svg width="834" height="849" viewBox="0 0 834 849" fill="none" xmlns="http://www.w3.org/2000/svg">
<path d="M385.331 31.9521C404.88 20.4624 429.12 20.4624 448.669 31.9521L735.801 200.71C754.902 211.936 766.633 232.437 766.633 254.593V594.408C766.633 616.564 754.902 637.064 735.801 648.29L448.669 817.048C429.12 828.538 404.88 828.538 385.331 817.048L98.1982 648.29C79.0974 637.064 67.3674 616.564 67.3672 594.408V254.592C67.3674 232.436 79.0974 211.936 98.1982 200.71L385.331 31.9521Z" fill="black" stroke="url(#paint0_linear_147_2)" stroke-width="23"/>
<g clip-path="url(#clip0_147_2)">
<path d="M266.309 347.074C274.156 347.159 282.644 347.419 290.448 347.309C296.112 347.192 301.777 347.166 307.442 347.231C310.623 347.249 314.339 347.145 317.436 347.576C321.25 350.954 326.236 358.853 329.479 363.328L339.644 377.642C341.052 379.607 342.867 381.519 344.231 383.458C346.158 386.195 348.049 389.229 349.863 392.057C336.43 392.269 339.105 393.495 331.075 382.722C326.913 377.25 322.822 371.724 318.802 366.147C316.688 363.209 314.62 359.95 312.464 357.128L311.388 357.113C278.278 356.751 244.605 357.501 211.447 357.349C198.869 357.286 186.292 357.297 173.714 357.382C166.79 357.38 158.934 356.96 152.138 357.82C149.36 358.171 144.573 361.655 142.583 363.809C137.027 369.824 136.9 374.385 136.867 381.785L136.865 451.155L136.863 470.796C136.872 480.265 135.848 487.055 143.135 494.326C149.829 501.006 157.326 499.815 165.992 500.039C174.395 500.257 182.738 500.012 191.104 500.037L278.534 500.072C283.219 500.068 310.868 500.931 312.793 499.361C314.707 497.801 316.031 495.313 317.515 493.349C320.588 489.281 323.636 485.176 326.965 481.315C329.71 478.132 332.187 473.967 335.294 471.221C338.111 468.733 344.28 469.858 347.806 470.065C346.497 472.482 342.602 478.221 341.087 480.206C338.558 483.52 318.891 509.572 317.675 509.582C295.673 509.748 273.769 509.74 251.867 509.642L199.893 509.737L169.023 509.702C164.769 509.707 157.057 510.186 153.269 509.499C146.445 508.262 140.633 505.855 135.722 500.881C130.903 496 129.423 494.097 127.938 487.015C127.347 484.202 126.849 482.71 126.84 479.664C126.817 471.821 126.863 463.981 126.867 456.144L126.854 409.753L126.848 387.102C126.856 375.133 126.269 365.858 135.221 356.604C143.989 347.54 152.21 347.18 163.939 347.167L184.273 347.2C211.491 347.173 239.133 347.441 266.309 347.074Z" fill="#AF40F8"/>
<path d="M310.961 350.029C312.265 350.049 314.059 351.049 315.14 351.77C313.58 351.763 312.014 351.208 310.961 350.029Z" fill="#8156F5"/>
<path d="M541.638 347.293C572.318 346.916 603.376 347.237 634.105 347.103L663.602 347.057C675.501 347.044 687.294 345.739 696.741 354.59C704.317 361.692 706.988 368.527 707.096 378.938C707.224 405.246 707.187 431.555 706.982 457.863C706.784 472.392 709.861 489.048 698.878 500.221C691.1 508.135 684.288 509.756 673.537 509.822L596.135 509.819L566.876 509.769C562.727 509.773 555.64 510.049 551.735 509.794C550.783 509.665 549.052 509.654 547.955 509.568C549.192 508.927 550.175 509.792 551.258 509.131C551.309 508.781 551.266 508.723 551.133 508.402L550.999 508.09C552.022 507.662 552.4 507.613 552.656 506.548C552.096 506.011 551.9 505.916 551.701 505.203C552.048 504.52 552.238 504.279 552.696 503.66L552.502 503.117C551.894 502.844 551.638 502.743 550.988 502.576L550.831 502.536C551.155 501.922 552.508 501.165 553.17 500.737C551.039 500.789 545.688 500.991 543.798 500.605L543.551 500.149C552.542 499.795 562.75 500.117 571.906 500.071L641.934 500.027L664.449 500.092C669.508 500.109 674.683 500.358 679.656 499.633C684.018 498.997 686.129 498.054 689.335 494.985C694.7 489.848 696.979 485.167 697.119 477.709C697.275 469.318 697.164 460.961 697.144 452.595L697.141 411.568L697.147 388.767C697.141 379.303 698.375 370.517 691.043 363.199C683.737 355.906 677.038 357.36 667.544 357.378L642.755 357.381L572.307 357.302C561.068 357.276 549.124 357.486 537.969 357.174L537.836 356.73C538.944 356.609 540.743 356.175 541.581 355.433C539.598 351.971 539.527 352.126 538.592 348.269C537.765 347.896 535.415 347.802 534.392 347.717C536.625 347.289 539.191 347.973 541.638 347.293Z" fill="#1FBDFC"/>
<path d="M465.481 347.333C469.093 347.119 474.14 347.046 477.698 347.324C483.998 355.974 489.508 365.221 495.871 373.844C498.5 377.409 500.677 381.362 503.425 384.899C503.746 386.768 503.967 390.177 503.959 392.063C503.845 408.168 504.038 424.294 503.831 440.39C503.786 443.756 504.34 468.672 503.496 470.067C495.573 483.145 486.638 496.32 478.033 509.01C477.093 510.397 465.657 510.021 463.634 509.818C465.674 505.029 470.167 499.323 472.992 494.898C474.703 492.217 476.192 489.509 477.84 486.798C481.273 481.182 485.737 475.8 489.13 470.178C484.211 470.548 478.752 470.019 473.768 470.275C470.988 470.418 467.541 470.429 464.793 470.191C464.066 464.95 464.648 458.515 464.89 453.239C464.992 451.005 464.08 447.858 464.765 445.74C465.907 444.918 485.601 444.993 488.787 444.881C489.486 434.586 488.914 421.411 489.031 410.79C484.524 410.288 466.45 411.875 463.711 410.347C462.827 408.829 463.361 402.737 463.406 400.593C463.506 395.761 462.869 390.122 463.591 385.405C466.427 385.197 469.988 385.353 472.895 385.352L489.088 385.249C483.6 377.703 478.03 369.431 473.034 361.584C471.094 358.535 465.572 350.958 464.256 348.168C464.617 347.446 464.455 347.684 465.481 347.333Z" fill="#3E9AFA"/>
<path d="M174.103 389.347C180.907 388.928 194.785 389.242 201.553 389.569C203.675 390.956 210.59 397.864 212.38 399.94C213.288 405.885 213.044 410.448 213.035 416.448L213.062 433.588C213.059 439.91 213.258 446.236 213.03 452.545C212.898 456.192 211.048 457.253 208.712 459.714C205.964 462.609 204.365 464.993 200.195 465.833C196.566 466.274 191.9 465.678 188.48 465.981C173.025 467.348 172.069 465.871 162.443 454.795C162.14 452.767 162.243 449.063 162.231 446.879L162.244 431.261L162.239 413.075C162.24 409.269 162.152 404.466 162.538 400.743C164.473 398.092 169.566 393.058 171.935 390.498C172.187 390.226 173.669 389.538 174.103 389.347ZM196.273 451.241C198.502 448.98 197.9 442.666 197.906 439.295C197.718 434.082 197.901 428.642 197.76 423.458C197.679 420.479 198.963 406.193 196.622 405.017C193.852 403.625 182.403 403.696 179.021 404.102C178.107 404.912 177.802 405.996 177.836 407.121C178.036 413.614 177.018 446.827 178.29 450.849C179.941 451.709 194.658 451.818 196.273 451.241Z" fill="#AF40F8"/>
<path d="M580.287 398.348C582.495 398.638 586.542 398.533 588.968 398.553C596.243 398.613 603.374 398.47 610.674 398.51C615.215 398.279 617.026 400.499 619.916 403.547C622.462 406.231 623.238 407.012 623.221 410.82C623.209 413.481 623.388 416.477 623.329 419.173C623.218 424.159 622.004 425.467 618.657 428.61C620.078 430.403 622.669 432.754 622.863 434.883C623.292 439.572 624.374 449.652 621.723 453.487C620.532 454.63 615.116 459.695 614.045 459.757C604.087 460.333 590.216 460.005 580.483 460.233C580.037 456.85 580.224 451.588 580.233 447.982V429.345L580.207 409.752C580.19 406.46 579.991 401.425 580.287 398.348ZM610.194 447.968C611.188 446.459 611.578 436.397 610.435 435.183C608.054 434.245 596.354 434.746 593.103 434.834C593.137 439.367 593.115 443.9 593.041 448.432C596.207 448.352 608.25 448.611 610.194 447.968ZM593.01 423.263C597.525 423.1 602.663 423.499 606.903 423.151C613.186 423.414 611.404 411.796 609.714 410.503C608.56 409.621 598.588 409.678 596.423 409.875L593.004 410.027C593.174 411.588 593.208 421.748 593.01 423.263Z" fill="#1EC0FB"/>
<path d="M540.186 398.498C544.744 398.465 549.589 398.354 554.114 398.625C555.904 402.155 557.771 408.313 559.021 412.222C559.689 414.306 560.044 416.782 560.823 419.107L567.712 439.685C569.064 443.624 574.219 455.978 571.54 459.67C569.718 460.501 562.162 460.059 559.652 460.055C559.09 454.838 559.246 451.958 557.08 446.94C555.603 446.83 553.5 446.835 551.974 446.798C546.625 446.766 540.896 447.029 535.673 446.892C534.278 450.262 533.704 455.866 532.166 460.023C529.325 460.404 523.598 460.124 520.606 459.981C520.288 457.713 520.14 454.599 520.714 452.282C523.098 442.664 526.551 434.607 529.632 425.152C532.246 417.136 534.73 407.37 538.362 399.476C538.68 398.784 539.564 398.629 540.186 398.498ZM538.958 435.312C541.377 434.913 543.616 434.929 546.057 434.875C548.78 434.79 550.794 434.862 553.523 435.019C551.957 429.886 550.269 424.718 548.709 419.582C548.012 417.291 547.663 414.649 547.111 412.307C547.046 412.032 546.071 411.563 545.889 411.482C544.349 419.813 541.127 427.15 538.958 435.312Z" fill="#1EC0FB"/>
<path d="M643.952 398.478C650.459 398.55 657.092 398.415 663.591 398.554C668.138 398.651 669.485 401.187 672.25 404.168C673.33 405.332 674.359 406.215 675.535 407.571C675.564 407.837 675.587 408.103 675.609 408.37C676.638 421.109 674.833 418.543 663.378 418.368C663.162 416.623 663.895 412.16 662.645 411.298C659.564 409.172 653.708 410.294 650.104 410.171C648.499 410.116 646.998 410.297 645.964 411.465C645.222 414.717 645.364 445.456 646.461 447.697C648.717 448.858 659.221 448.619 662.142 447.867C662.827 447.691 663.219 445.203 663.344 444.529L663.338 440.193C667.215 440.559 671.366 440.45 675.28 440.44C678.167 450.589 673.33 453.878 666.282 459.977C660.889 460.276 648.76 460.253 643.349 459.968C640.928 458.489 633.798 453.131 633.482 450.163C632.908 444.738 633.417 438.648 633.372 433.131C633.301 424.494 633.158 415.72 633.573 407.095C635.861 403.855 639.749 398.9 643.952 398.478Z" fill="#1EC0FB"/>
<path d="M246.338 428.693C247.051 427.436 255.005 415.769 255.855 415.326C256.849 414.809 266.584 414.777 268.042 415.006L268.203 415.582C267.402 418.835 255.846 433.39 253.149 437.267C256.143 443.729 263.581 451.442 267.474 457.605C268.023 458.475 268.017 458.534 267.844 459.469L267.27 459.818C265.143 459.767 259.266 460.13 257.685 459.893C254.413 459.403 248.16 449.066 245.987 445.934C243.867 449.939 238.957 456.429 235.79 459.765C231.699 460.027 227.595 459.986 223.51 459.642C227.393 452.852 234.518 443.66 239.433 437.386C234.912 432.24 226.72 420.661 223.371 414.756C227.695 415.114 231.42 414.951 235.708 415.1C239.117 417.719 239.862 420.353 242.356 423.805C243.694 425.657 244.81 426.986 246.338 428.693Z" fill="#AF40F8"/>
<path d="M484.535 509.937C486.158 507.172 488.181 503.678 490.21 501.167C490.696 500.566 491.489 500.327 492.259 500.292C498.193 500.026 504.49 500.146 510.444 500.156L543.551 500.149L543.798 500.605C545.688 500.992 551.039 500.79 553.17 500.737C552.508 501.166 551.155 501.922 550.831 502.537L550.988 502.576C551.638 502.744 551.894 502.845 552.502 503.117L552.696 503.66C552.238 504.279 552.048 504.52 551.701 505.203C551.9 505.916 552.096 506.011 552.656 506.548C552.4 507.613 552.022 507.663 550.999 508.09L551.133 508.402C551.266 508.723 551.309 508.781 551.258 509.131C550.175 509.792 549.192 508.928 547.956 509.568C549.052 509.654 550.783 509.666 551.735 509.794C548.251 510.359 535.628 509.742 531.368 509.721C515.755 509.623 500.145 509.695 484.535 509.937Z" fill="#1FBDFC"/>
<path d="M431.212 357.441C437.578 357.46 443.946 357.368 450.315 357.384C453.207 357.341 454.563 357.423 454.506 360.827C454.41 366.468 454.475 372.275 454.358 377.918C454.339 378.955 454.148 379.961 453.48 380.711C449.283 380.281 433.159 381.158 431.184 380.16C430.408 378.333 430.894 373.574 431.03 371.327C431.272 367.404 430.297 361.065 431.212 357.441Z" fill="#646DF7"/>
<path d="M406.15 327.423C411.172 328.075 423.849 327.613 429.436 327.512C429.808 333.373 429.552 344.255 429.424 350.275C428.231 350.439 422.641 350.249 421.129 350.241C416.196 350.214 411.263 350.292 406.333 350.473C405.878 344.861 406.213 333.48 406.15 327.423Z" fill="#646DF7"/>
<path d="M380.284 300.711C386.267 300.402 390.836 301.028 397.521 300.473C397.756 304.226 397.495 308.732 397.478 312.582C397.464 315.9 397.652 320.27 397.19 323.407C395.424 323.525 393.543 323.523 391.765 323.553C386.239 323.68 379.864 323.657 374.339 323.606C374.304 321.604 374.615 319.146 374.535 317.229C374.301 311.644 374.293 306.436 374.461 300.865C376.641 300.905 378.111 300.879 380.284 300.711Z" fill="#8156F5"/>
<path d="M375.677 351.316C377.413 351.381 379.15 351.398 380.887 351.367C381.872 359.235 380.845 367.283 381.817 373.841C378.878 374.501 369.004 373.972 364.782 374.06C363.23 374.136 360.172 374.526 359.019 373.635C358.368 371.034 358.42 353.957 359.026 351.688C360.586 351.173 372.695 351.44 375.677 351.316Z" fill="#8156F5"/>
<path d="M490.969 357.014C490.139 355.271 485.416 348.232 485.436 347.521C486.556 346.777 536.412 347.235 541.638 347.293C539.192 347.973 536.625 347.288 534.392 347.717C535.415 347.802 537.765 347.896 538.592 348.268C539.527 352.126 539.598 351.971 541.581 355.433C540.743 356.175 538.944 356.608 537.836 356.73L537.97 357.174C533.752 357.516 521.629 357.23 517.207 357.15C509.185 357.006 498.722 357.461 490.969 357.014Z" fill="#1FBDFC"/>
<path d="M388.79 523.805C392.605 523.749 396.421 523.792 400.234 523.935C400.596 527.301 400.648 542.821 400.326 546.169C397.815 546.305 393.338 546.061 390.643 545.998C388.441 545.956 380.431 546.388 379.037 545.896C378.281 543.557 378.32 526.837 378.958 524.441C380.022 523.701 387.002 523.862 388.79 523.805Z" fill="#8156F5"/>
<path d="M448.902 472.95C450.357 472.899 452.505 472.66 453.716 473.379C454.713 475.141 454.259 491.862 453.881 494.695C449.141 495.136 442.96 494.317 437.844 494.84C436.799 495.078 433.536 494.679 432.311 494.552C432.257 493.362 432.289 491.992 432.331 490.798C432.539 484.932 432.263 479.026 432.388 473.171C435.622 472.766 444.912 473.027 448.902 472.95Z" fill="#646DF7"/>
<path d="M444.21 420.639C445.961 420.392 459.937 420.542 461.494 421.053C462.355 422.614 461.969 439.164 461.898 442.135L459.13 442.198C454.563 442.14 444.702 441.813 440.502 442.461C440.374 441.102 440.277 436.482 440.53 435.131C440.922 433.049 440.155 422.19 440.763 421.213C441.715 420.64 443.065 420.695 444.21 420.639Z" fill="#646DF7"/>
<path d="M388.698 378.256C391.604 378.431 405.685 377.709 407.01 379.097C407.957 381.512 407.647 395.329 407.315 398.741C407.28 399.096 406.831 399.171 406.416 399.341C405.612 399.385 404.607 399.372 403.798 399.334C398.029 399.068 392.152 399.666 386.396 399.352C386.186 396.335 386.321 392.023 386.269 388.916C386.223 386.268 386.042 381.293 386.324 378.803C387.15 378.205 387.548 378.362 388.698 378.256Z" fill="#8156F5"/>
<path d="M412.51 400.548C416.361 400.943 429.885 401.484 433.232 400.354C433.406 404.102 433.664 417.649 433.227 421.181C431.24 421.512 414.468 421.554 412.78 420.936C411.936 419.655 412.152 402.949 412.51 400.548Z" fill="#646DF7"/>
<path d="M411.885 502.388C418.322 502.308 424.735 502.439 431.192 502.32C431.667 504.852 432.153 521.344 431.124 523.068C427.699 523.087 413.92 523.488 411.45 522.617C410.64 521.479 411.208 514.547 411.257 512.762C411.331 510.017 410.416 504.463 411.885 502.388Z" fill="#646DF7"/>
<path d="M406.492 444.214C408.952 444.638 423.263 444.392 426.452 444.386C427.205 448.661 427.191 459.077 426.77 463.757C426.725 464.284 426.193 464.461 425.764 464.686C418.299 464.642 413.667 464.406 406.073 465.053C406.147 462.334 405.788 445.403 406.492 444.214Z" fill="#646DF7"/>
<path d="M333.084 324.529C335.602 324.348 350.653 324.241 352.367 324.675C353.82 326.653 352.984 339.379 352.99 342.388C352.992 343.246 352.549 343.723 351.974 344.286C346.937 344.407 337.718 344.811 332.976 344.14C332.494 340.732 332.261 327.379 333.084 324.529Z" fill="#AF40F8"/>
<path d="M400.566 467.561C401.385 467.851 401.702 468.362 401.662 469.139C401.573 470.879 402.146 486.962 401.112 487.158C396.92 487.954 387.078 487.674 382.566 487.818C382.182 487.607 382.078 487.459 381.76 487.157C381.488 486.412 381.655 469.046 381.996 468.309C383.964 467.313 397.071 467.68 400.566 467.561Z" fill="#8156F5"/>
<path d="M463.44 308.138C465.478 307.912 469.221 308.036 471.295 308.097C471.514 310.952 472.091 325.197 470.815 327.046C468.831 327.995 461.929 327.612 459.271 327.649C457.598 327.691 454.381 327.921 452.963 327.296C451.63 325.452 452.278 311.807 452.232 308.326C455.822 308.028 459.735 308.4 463.44 308.138Z" fill="#646DF7"/>
<path d="M382.985 425.8C383.677 425.729 386.016 425.28 386.106 426.212C386.467 429.947 387.1 440.874 385.793 443.855C384.686 444.505 375.396 443.944 372.167 444.315C370.473 444.483 369.821 444.742 368.53 443.799C367.906 442.107 367.924 428.338 368.732 426.226C370.291 425.485 379.738 426.083 382.985 425.8Z" fill="#8156F5"/>
<path d="M354.747 491.586C360.46 491.594 366.695 491.714 372.353 491.455C372.514 493.565 372.687 508.351 372.186 509.501L371.582 509.657C368.875 509.7 355.837 509.887 354.28 509.186C353.41 507.269 354.208 503.7 354.321 501.513C354.447 499.118 353.581 493.442 354.747 491.586Z" fill="#AF40F8"/>
<path d="M351.068 275.119C355.557 275.429 361.588 275.26 366.195 275.252C366.236 278.447 366.768 290.055 366.038 292.227C365.198 292.976 365.405 292.759 364.165 292.98C358.653 292.763 354.179 292.924 348.704 293.183C348.417 290.784 348.252 277.665 348.903 275.783C349.533 275.181 350.167 275.228 351.068 275.119Z" fill="#AF40F8"/>
<path d="M429.819 285.675C431.019 285.632 435.517 285.259 435.665 286.67C436.043 290.24 436.674 299.594 435.293 302.555C434.105 303.288 427.199 302.784 425.312 302.768C423.653 302.815 420.296 303.065 418.924 302.545C418.273 301.277 418.58 288.225 418.913 286.169C419.722 285.421 427.986 285.711 429.819 285.675Z" fill="#646DF7"/>
<path d="M459.817 529.5C461.784 529.54 466.382 528.835 467.647 529.989C468.51 532.726 468.493 543.06 467.618 545.896C466.194 547.2 461.69 546.706 459.556 546.657C457.672 546.697 453.278 546.979 451.647 546.288C450.718 544.964 450.798 531.497 451.872 529.941C453.469 529.365 457.942 529.509 459.817 529.5Z" fill="#646DF7"/>
<path d="M399.771 255.004C401.492 254.924 404.191 254.59 405.586 255.541C406.401 257.625 406.3 269.186 405.498 271.202C403.674 272.328 398.008 271.896 395.622 271.871L389.891 272.018C389.287 268.592 389.51 259.188 389.671 255.401C392.523 254.924 396.777 255.024 399.771 255.004Z" fill="#646DF7"/>
<path d="M357.841 564.717C362.419 564.958 366.646 564.484 371.269 564.819C371.457 567.814 371.591 578.027 370.731 580.559C370.064 581.252 370.384 581.036 369.187 581.213C366.679 581.383 357.922 581.687 355.864 580.926C354.97 579.795 354.278 566.655 355.087 565.552C355.946 564.822 356.713 564.847 357.841 564.717Z" fill="#AF40F8"/>
<path d="M430.99 551.394L431.794 551.261L432.215 551.565C432.684 552.883 432.494 565.469 431.951 566.702C430.524 567.393 420.709 567.103 418.35 567.086L417.384 566.984C416.241 565.677 416.744 554.165 416.773 551.607C420.7 551.255 426.705 551.539 430.99 551.394Z" fill="#646DF7"/>
<path d="M349.699 529.539L350.222 529.797C350.504 530.474 350.527 530.804 350.572 531.527C351.562 547.365 350.816 544.402 336.152 544.64C335.19 543.097 335.635 535.403 335.597 533.115C335.531 529.101 338.216 529.463 341.069 529.689C343.194 529.857 347.649 530.019 349.699 529.539Z" fill="#AF40F8"/>
<path d="M405.854 579.524C406.295 579.649 406.105 579.604 406.49 580.084C406.721 582.011 407.494 595.137 404.444 594.759C400.665 594.293 397.079 594.199 393.19 594.662L392.858 594.52C391.882 593.139 392.214 582.323 392.214 579.928C396.277 579.527 401.628 579.647 405.854 579.524Z" fill="#8156F5"/>
<path d="M288.846 440.765C291.337 440.705 298.792 440.254 300.759 441.09C301.743 442.496 300.956 450.432 301.256 452.645C301.368 453.473 300.927 453.868 300.431 454.323C298.347 454.448 289.554 454.796 288.112 453.965C287.039 452.059 287.855 444.751 287.765 442.266C287.737 441.485 288.331 441.145 288.846 440.765Z" fill="#AF40F8"/>
<path d="M312.459 440.809C314.364 440.776 322.625 440.077 323.8 441.285C324.815 443.751 324.186 449.737 324.015 452.555C323.95 453.613 323.572 453.841 322.881 454.337C320.679 454.343 312.722 454.523 311.238 454.199C310.289 452.428 310.577 444.254 310.948 441.89C311.055 441.208 311.887 441.026 312.459 440.809Z" fill="#AF40F8"/>
<path d="M335.373 440.771C339.269 440.763 343.719 440.85 347.555 440.545C347.542 444.516 347.698 448.517 347.57 452.488C347.533 453.664 347.491 453.75 346.786 454.398L334.207 454.39C334.574 450.508 333.732 445.132 334.499 441.283C334.541 441.071 335.089 440.902 335.373 440.771Z" fill="#AF40F8"/>
</g>
<defs>
<linearGradient id="paint0_linear_147_2" x1="834" y1="424.5" x2="0" y2="424.5" gradientUnits="userSpaceOnUse">
<stop stop-color="#14CAFC"/>
<stop offset="1" stop-color="#BB3BFA"/>
</linearGradient>
<clipPath id="clip0_147_2">
<rect width="582" height="341" fill="white" transform="translate(126 254)"/>
</clipPath>
</defs>
</svg>
